<svg id="Layer_1" data-name="Layer 1" xmlns="http://www.w3.org/2000/svg" viewBox="0 0 1080 1080"><defs><style>.cls-1{fill:#fff;}.cls-2,.cls-3{fill:none;stroke:#000;stroke-miterlimit:10;}.cls-2{stroke-width:4px;}.cls-3{stroke-width:2px;}</style></defs><rect class="cls-1" x="364.5" y="283" width="331" height="514"/><path d="M692,286.5v507H368v-507H692m7-7H361v521H699v-521Z"/><path d="M471.76,462.35h4.48v34.08h-4.67V470.9l.24,1.5-8.39,19.29h-3.33l-8.39-18.82.23-2v25.53h-4.66V462.35h4.48l10,22.5Z"/><path d="M488.4,495.51a8.42,8.42,0,0,1-3.64-3.71,12.81,12.81,0,0,1-1.26-5.92v-2.74a14.44,14.44,0,0,1,1.21-6.17,8.64,8.64,0,0,1,3.51-3.89,10.81,10.81,0,0,1,5.53-1.33,8.82,8.82,0,0,1,5.2,1.52,9.5,9.5,0,0,1,3.29,4.41,18.76,18.76,0,0,1,1.14,6.91v1.6H487v-3.85h11.86a8.21,8.21,0,0,0-1.53-4.63,4.33,4.33,0,0,0-3.55-1.65,5.16,5.16,0,0,0-4.21,1.78,7.67,7.67,0,0,0-1.49,5V486a6.33,6.33,0,0,0,1.6,4.65,6.09,6.09,0,0,0,4.52,1.61,7.52,7.52,0,0,0,2.88-.58,8.42,8.42,0,0,0,2.56-1.64l3.14,3.14a13.4,13.4,0,0,1-4.06,2.68,11.61,11.61,0,0,1-4.52.95A12.14,12.14,0,0,1,488.4,495.51Z"/><path d="M509.94,472.1h4.78v24.33h-4.78Zm14.53,9.59a5.79,5.79,0,0,0-1.26-4,4.58,4.58,0,0,0-3.59-1.41,5,5,0,0,0-3.62,1.25,4.65,4.65,0,0,0-1.28,3.49l-.49-4.69a8.7,8.7,0,0,1,2.94-3.4,7.2,7.2,0,0,1,4-1.19,7.82,7.82,0,0,1,4.36,1.16,7.35,7.35,0,0,1,2.76,3.38,13.76,13.76,0,0,1,.94,5.37v14.77h-4.78Zm14.53,0a5.58,5.58,0,0,0-1.33-4,4.92,4.92,0,0,0-3.75-1.41,4.42,4.42,0,0,0-3.45,1.36,5.59,5.59,0,0,0-1.22,3.85l-1-4.69a9.42,9.42,0,0,1,3-3.74,7.09,7.09,0,0,1,4.16-1.32,8.29,8.29,0,0,1,4.49,1.16,7.3,7.3,0,0,1,2.83,3.38,13.38,13.38,0,0,1,1,5.37v14.77H539Z"/><path d="M555,495.54a8.23,8.23,0,0,1-3.43-3.62,12.76,12.76,0,0,1-1.18-5.73v-4a12.48,12.48,0,0,1,1.18-5.66A8.14,8.14,0,0,1,555,473a12.53,12.53,0,0,1,10.83,0,8.16,8.16,0,0,1,3.44,3.58,12.48,12.48,0,0,1,1.18,5.66v4a12.54,12.54,0,0,1-1.18,5.68,8.26,8.26,0,0,1-3.44,3.6,12.44,12.44,0,0,1-10.83,0Zm9.3-4.88a6.48,6.48,0,0,0,1.37-4.4v-4a6.4,6.4,0,0,0-1.37-4.38,5.63,5.63,0,0,0-7.76,0,6.4,6.4,0,0,0-1.37,4.38v4a6.48,6.48,0,0,0,1.37,4.4,5.58,5.58,0,0,0,7.76,0Z"/><path d="M577.21,472.1H582v24.33h-4.78ZM589,476.69a5.92,5.92,0,0,0-2.23-.4,4.76,4.76,0,0,0-3.53,1.26A4.71,4.71,0,0,0,582,481l-.49-4.69a8.86,8.86,0,0,1,2.9-3.38,6.84,6.84,0,0,1,3.94-1.21,8.92,8.92,0,0,1,3,.48,6.65,6.65,0,0,1,2.36,1.42l-3.12,4.22A4,4,0,0,0,589,476.69Z"/><path d="M595.11,472.1H600l7.47,21.14-2.64,5.18Zm21.54,0-10.36,30a7.07,7.07,0,0,1-1.47,2.64,5.13,5.13,0,0,1-2.25,1.39,10.74,10.74,0,0,1-3.28.43h-1V502h1a3.7,3.7,0,0,0,2.12-.54,4.29,4.29,0,0,0,1.37-1.85l9-27.49Z"/><path d="M452,519.93h4.78V554H452Zm2.09,15.14H465.7a4.48,4.48,0,0,0,2.42-.66,4.42,4.42,0,0,0,1.63-1.86,7.06,7.06,0,0,0,0-5.56,4.29,4.29,0,0,0-4.05-2.52H454.08v-4.54h11.44a10.72,10.72,0,0,1,5.19,1.21,8.63,8.63,0,0,1,3.47,3.46,11.4,11.4,0,0,1,0,10.34,8.5,8.5,0,0,1-3.48,3.45,10.52,10.52,0,0,1-5.16,1.22H454.08Zm9.28,3.49,4.76-1.08L476.84,554h-5.68Z"/><path d="M482.81,520h4.78V554h-4.78Zm14.77,19.34a5.58,5.58,0,0,0-1.34-4,4.92,4.92,0,0,0-3.75-1.41,5,5,0,0,0-3.62,1.22,4.56,4.56,0,0,0-1.28,3.45l-.49-4.69a8.66,8.66,0,0,1,2.94-3.34,7.19,7.19,0,0,1,4-1.18,7.53,7.53,0,0,1,6.13,2.59c1.45,1.72,2.17,4.17,2.17,7.32V554h-4.78Z"/><path d="M506.34,529.7h4.88l7.48,21.14L516.05,556Zm21.54,0-10.36,30a7.07,7.07,0,0,1-1.47,2.64,5.13,5.13,0,0,1-2.25,1.39,10.74,10.74,0,0,1-3.28.43h-1v-4.6h1a3.7,3.7,0,0,0,2.12-.54,4.29,4.29,0,0,0,1.37-1.85l9-27.49Z"/><path d="M530.7,529.7h11V534h-11Zm3.87,22.82a7.37,7.37,0,0,1-1.37-4.82V522.62H538v25.13a2.26,2.26,0,0,0,.36,1.37,1.18,1.18,0,0,0,1,.48h2.29v4.54H538.9A5.38,5.38,0,0,1,534.57,552.52Z"/><path d="M548.23,520H553V554h-4.78ZM563,539.29a5.58,5.58,0,0,0-1.33-4,4.92,4.92,0,0,0-3.75-1.41,5,5,0,0,0-3.62,1.22,4.52,4.52,0,0,0-1.28,3.45l-.49-4.69a8.66,8.66,0,0,1,2.94-3.34,7.19,7.19,0,0,1,4-1.18,7.55,7.55,0,0,1,6.13,2.59c1.44,1.72,2.16,4.17,2.16,7.32V554H563Z"/><path d="M575,529.7h4.78V554H575Zm14.53,9.59a5.74,5.74,0,0,0-1.27-4,4.55,4.55,0,0,0-3.58-1.41,5,5,0,0,0-3.62,1.25,4.64,4.64,0,0,0-1.28,3.49l-.49-4.69a8.7,8.7,0,0,1,2.94-3.4,7.2,7.2,0,0,1,4-1.19,7.84,7.84,0,0,1,4.36,1.16,7.27,7.27,0,0,1,2.75,3.38,13.57,13.57,0,0,1,1,5.37V554h-4.78Zm14.53,0a5.58,5.58,0,0,0-1.33-4,4.93,4.93,0,0,0-3.75-1.41,4.41,4.41,0,0,0-3.45,1.36,5.59,5.59,0,0,0-1.22,3.85l-1-4.69a9.35,9.35,0,0,1,3-3.74,7.07,7.07,0,0,1,4.16-1.32,8.23,8.23,0,0,1,4.48,1.16,7.26,7.26,0,0,1,2.84,3.38,13.38,13.38,0,0,1,1,5.37V554H604.1Z"/><path d="M470.13,577.55h4.48v34.08H470V586.1l.23,1.5-8.39,19.29h-3.33l-8.39-18.82.24-2v25.53h-4.67V577.55h4.48l10,22.5Z"/><path d="M483.63,610.12a7,7,0,0,1-2.22-5.66,6.86,6.86,0,0,1,2-5.42q2-1.8,6.16-1.8h6.91l.33,3.84h-7.22a4.11,4.11,0,0,0-2.8.83,3.28,3.28,0,0,0-.92,2.55,3.17,3.17,0,0,0,1.23,2.74,6.4,6.4,0,0,0,3.74.89,10.84,10.84,0,0,0,4.09-.59,1.93,1.93,0,0,0,1.34-1.83l.5,3.43a5.84,5.84,0,0,1-1.56,1.61,6.89,6.89,0,0,1-2.15.95,10.91,10.91,0,0,1-2.74.32Q485.86,612,483.63,610.12Zm12.68-13.91a5.13,5.13,0,0,0-1.27-3.72,4.83,4.83,0,0,0-3.63-1.32,9.2,9.2,0,0,0-2.84.44,8.6,8.6,0,0,0-2.48,1.24l-3.49-2.39a9.14,9.14,0,0,1,3.65-2.59,13.24,13.24,0,0,1,5-.92,11.56,11.56,0,0,1,5.18,1.06,7.41,7.41,0,0,1,3.28,3.1,9.92,9.92,0,0,1,1.13,4.88v15.64h-4.55Z"/><path d="M515,598.2l2.3,4.4-6.19,9h-5.3Zm.14,2.36-8.95-13.26h5.32l7,10.9,9.21,13.43h-5.29Zm1.55-4.64L522,587.3h5.32l-8.63,13.12Z"/><path d="M539.79,598.2l2.3,4.4-6.19,9h-5.3Zm.14,2.36L531,587.3h5.32l7,10.9,9.21,13.43H547.2Zm1.55-4.64,5.32-8.62h5.32l-8.63,13.12Z"/><path d="M557.77,577.55h4.78v4.78h-4.78Zm0,9.75h4.78v24.33h-4.78Z"/><path d="M569.81,587.3h4.78v24.33h-4.78Zm14.77,9.58a5.57,5.57,0,0,0-1.34-4,4.92,4.92,0,0,0-3.75-1.41,5,5,0,0,0-3.62,1.25,4.64,4.64,0,0,0-1.28,3.49l-.49-4.69a8.7,8.7,0,0,1,2.94-3.4,7.2,7.2,0,0,1,4-1.19,7.53,7.53,0,0,1,6.13,2.59c1.45,1.72,2.17,4.17,2.17,7.32v14.77h-4.78Z"/><path d="M599.78,610.89a7.24,7.24,0,0,1-2.87-3.39,13.05,13.05,0,0,1-1-5.34v-5.37a13.57,13.57,0,0,1,1-5.37,7.3,7.3,0,0,1,2.8-3.38,8.07,8.07,0,0,1,4.42-1.16,7.26,7.26,0,0,1,3.95,1.12,8.33,8.33,0,0,1,2.9,3.17l-.5,5a5.66,5.66,0,0,0-.56-2.64,3.78,3.78,0,0,0-1.63-1.68,5.42,5.42,0,0,0-2.59-.57,4.65,4.65,0,0,0-3.67,1.47,6.12,6.12,0,0,0-1.3,4.15v5.3a5.94,5.94,0,0,0,1.3,4.09,4.7,4.7,0,0,0,3.67,1.44,5.19,5.19,0,0,0,2.59-.6,3.93,3.93,0,0,0,1.63-1.72,5.91,5.91,0,0,0,.56-2.7l.33,5.14a6.9,6.9,0,0,1-2.38,3,6.65,6.65,0,0,1-4.06,1.22A8.56,8.56,0,0,1,599.78,610.89Zm.09,9.61a7.9,7.9,0,0,1-3.36-2.87l3.23-2.93a6.72,6.72,0,0,0,2.24,2,6.28,6.28,0,0,0,7-.81,5.81,5.81,0,0,0,1.5-4.28V587.3h4.78v23.6a12.41,12.41,0,0,1-1.23,5.74,8.32,8.32,0,0,1-3.57,3.64,12,12,0,0,1-5.65,1.24A11.41,11.41,0,0,1,599.87,620.5Z"/><line class="cls-2" x1="365" y1="527" x2="215" y2="527"/><path d="M217.09,500.09h2.39v17h-2.39Zm3.47,16.67a3.17,3.17,0,0,1-1.24-1.54l.16-2.54a3,3,0,0,0,.28,1.33,2,2,0,0,0,.82.85,2.7,2.7,0,0,0,1.29.29,2.37,2.37,0,0,0,1.84-.72,3,3,0,0,0,.65-2v-2.64a3,3,0,0,0-.65-2.07,2.31,2.31,0,0,0-1.84-.74,2.7,2.7,0,0,0-1.29.28,1.91,1.91,0,0,0-.82.82,2.94,2.94,0,0,0-.28,1.31l-.24-2.34a4.16,4.16,0,0,1,1.44-1.65,3.51,3.51,0,0,1,2-.58,4,4,0,0,1,2.21.58,3.68,3.68,0,0,1,1.4,1.69,6.81,6.81,0,0,1,.48,2.69v2.65a6.55,6.55,0,0,1-.49,2.64,3.65,3.65,0,0,1-1.45,1.69,4.33,4.33,0,0,1-2.27.58A3.59,3.59,0,0,1,220.56,516.76Z"/><path d="M232.1,516.69a4.1,4.1,0,0,1-1.71-1.81,6.34,6.34,0,0,1-.59-2.87v-2a6.16,6.16,0,0,1,.59-2.83,4,4,0,0,1,1.71-1.79,6.23,6.23,0,0,1,5.42,0,4,4,0,0,1,1.71,1.79,6.16,6.16,0,0,1,.6,2.83v2a6.25,6.25,0,0,1-.6,2.85,4.13,4.13,0,0,1-1.71,1.8,6.23,6.23,0,0,1-5.42,0Zm4.65-2.44a3.25,3.25,0,0,0,.69-2.21v-2a3.16,3.16,0,0,0-.69-2.19,2.8,2.8,0,0,0-3.88,0,3.16,3.16,0,0,0-.68,2.19v2a3.25,3.25,0,0,0,.68,2.21,2.8,2.8,0,0,0,3.88,0Z"/><path d="M242.29,505h5.48v2.15h-5.48Zm1.94,11.41a3.66,3.66,0,0,1-.69-2.41V501.43h2.39V514a1.13,1.13,0,0,0,.18.69.6.6,0,0,0,.51.24h1.15v2.27h-1.38A2.66,2.66,0,0,1,244.23,516.38Z"/><path d="M253,516.69a4.18,4.18,0,0,1-1.72-1.81,6.47,6.47,0,0,1-.59-2.87v-2a6.29,6.29,0,0,1,.59-2.83,4.08,4.08,0,0,1,1.72-1.79,6.21,6.21,0,0,1,5.41,0,4,4,0,0,1,1.72,1.79,6.16,6.16,0,0,1,.59,2.83v2a6.25,6.25,0,0,1-.59,2.85,4.15,4.15,0,0,1-1.72,1.8,6.21,6.21,0,0,1-5.41,0Zm4.65-2.44a3.3,3.3,0,0,0,.68-2.21v-2a3.21,3.21,0,0,0-.68-2.19,2.46,2.46,0,0,0-1.94-.78,2.43,2.43,0,0,0-1.94.78,3.16,3.16,0,0,0-.69,2.19v2a3.25,3.25,0,0,0,.69,2.21,2.43,2.43,0,0,0,1.94.78A2.46,2.46,0,0,0,257.66,514.25Z"/><path d="M266.23,516.67a4.17,4.17,0,0,1-1.82-1.85,6.44,6.44,0,0,1-.63-3v-1.37a7.25,7.25,0,0,1,.6-3.09,4.32,4.32,0,0,1,1.76-1.94,5.32,5.32,0,0,1,2.76-.67,4.36,4.36,0,0,1,2.6.76,4.72,4.72,0,0,1,1.65,2.21,9.37,9.37,0,0,1,.57,3.45v.8h-8.21v-1.92h5.93a4.12,4.12,0,0,0-.76-2.32,2.18,2.18,0,0,0-1.78-.82,2.55,2.55,0,0,0-2.1.89,3.79,3.79,0,0,0-.75,2.52v1.54a3.16,3.16,0,0,0,.8,2.32,3,3,0,0,0,2.26.81,3.63,3.63,0,0,0,1.44-.29,4.18,4.18,0,0,0,1.28-.82l1.57,1.57a6.46,6.46,0,0,1-2,1.34,5.7,5.7,0,0,1-2.26.48A6,6,0,0,1,266.23,516.67Z"/><path d="M279.28,517.1a7.46,7.46,0,0,1-1.77-.64,7,7,0,0,1-1.51-1.05l1.42-1.75a8.09,8.09,0,0,0,2,1.13,5.31,5.31,0,0,0,1.92.37,4.08,4.08,0,0,0,2.13-.44,1.45,1.45,0,0,0,.71-1.32,1,1,0,0,0-.39-.87,2.2,2.2,0,0,0-1-.4c-.39-.06-.92-.12-1.62-.18H281l-.2,0h-.19a9.91,9.91,0,0,1-2-.35,2.69,2.69,0,0,1-1.36-.94,3.09,3.09,0,0,1-.55-2,4.05,4.05,0,0,1,.53-2.15,3.15,3.15,0,0,1,1.57-1.28,6.78,6.78,0,0,1,2.61-.43,8.82,8.82,0,0,1,1.81.18,7.73,7.73,0,0,1,1.65.52,8.19,8.19,0,0,1,1.51.87l-1.44,1.75a7.85,7.85,0,0,0-1.8-.88,5.37,5.37,0,0,0-1.73-.29,3.26,3.26,0,0,0-1.83.41,1.43,1.43,0,0,0-.61,1.25.86.86,0,0,0,.35.74,2.14,2.14,0,0,0,.87.33c.35.05.85.1,1.5.14h.45a10.87,10.87,0,0,1,2.17.34,2.92,2.92,0,0,1,1.51,1,3.49,3.49,0,0,1,.61,2.2,3.88,3.88,0,0,1-.57,2.18,3.36,3.36,0,0,1-1.69,1.29,8,8,0,0,1-2.84.44A9.28,9.28,0,0,1,279.28,517.1Z"/><line class="cls-3" x1="361" y1="644.5" x2="211" y2="644.5"/><path d="M215.09,622h2.39v12.16h-2.39Zm5.9,2.29a3,3,0,0,0-1.12-.2,2.38,2.38,0,0,0-1.76.63,2.35,2.35,0,0,0-.63,1.74l-.24-2.34a4.5,4.5,0,0,1,1.45-1.7,3.44,3.44,0,0,1,2-.6,4.41,4.41,0,0,1,1.5.24,3.36,3.36,0,0,1,1.18.71l-1.56,2.11A2,2,0,0,0,221,624.26Z"/><path d="M227.2,633.67a4.17,4.17,0,0,1-1.82-1.85,6.44,6.44,0,0,1-.63-3v-1.37a7.25,7.25,0,0,1,.6-3.09,4.3,4.3,0,0,1,1.75-1.94,5.39,5.39,0,0,1,2.77-.67,4.36,4.36,0,0,1,2.6.76,4.72,4.72,0,0,1,1.65,2.21,9.37,9.37,0,0,1,.57,3.45v.8h-8.21v-1.92h5.93a4.12,4.12,0,0,0-.76-2.32,2.18,2.18,0,0,0-1.78-.82,2.55,2.55,0,0,0-2.1.89,3.79,3.79,0,0,0-.75,2.52v1.54a3.16,3.16,0,0,0,.8,2.32,3,3,0,0,0,2.26.81,3.67,3.67,0,0,0,1.44-.29,4.31,4.31,0,0,0,1.28-.82l1.57,1.57a6.46,6.46,0,0,1-2,1.34,5.7,5.7,0,0,1-2.26.48A6,6,0,0,1,227.2,633.67Z"/><path d="M240.25,634.1a7.46,7.46,0,0,1-1.77-.64,7,7,0,0,1-1.51-1.05l1.42-1.75a8.09,8.09,0,0,0,2,1.13,5.28,5.28,0,0,0,1.92.37,4.08,4.08,0,0,0,2.13-.44,1.44,1.44,0,0,0,.7-1.32,1,1,0,0,0-.38-.87,2.2,2.2,0,0,0-1-.4q-.58-.09-1.62-.18h-.2l-.2,0h-.19a9.79,9.79,0,0,1-2-.35,2.76,2.76,0,0,1-1.37-.94,3.15,3.15,0,0,1-.54-2,4,4,0,0,1,.53-2.15,3.15,3.15,0,0,1,1.57-1.28,6.78,6.78,0,0,1,2.61-.43,8.82,8.82,0,0,1,1.81.18,7.91,7.91,0,0,1,1.65.52,8.53,8.53,0,0,1,1.51.87l-1.44,1.75a7.85,7.85,0,0,0-1.8-.88,5.37,5.37,0,0,0-1.73-.29,3.26,3.26,0,0,0-1.83.41,1.43,1.43,0,0,0-.61,1.25.86.86,0,0,0,.35.74,2.14,2.14,0,0,0,.87.33c.35.05.85.1,1.5.14h.45a10.87,10.87,0,0,1,2.17.34,2.92,2.92,0,0,1,1.51,1,3.49,3.49,0,0,1,.61,2.2,3.88,3.88,0,0,1-.57,2.18,3.4,3.4,0,0,1-1.69,1.29,8,8,0,0,1-2.84.44A9.28,9.28,0,0,1,240.25,634.1Z"/><path d="M252.51,633.67a4.23,4.23,0,0,1-1.82-1.85,6.44,6.44,0,0,1-.63-3v-1.37a7.25,7.25,0,0,1,.6-3.09,4.32,4.32,0,0,1,1.76-1.94,5.32,5.32,0,0,1,2.76-.67,4.36,4.36,0,0,1,2.6.76,4.72,4.72,0,0,1,1.65,2.21,9.37,9.37,0,0,1,.57,3.45v.8h-8.2v-1.92h5.93a4.2,4.2,0,0,0-.77-2.32,2.16,2.16,0,0,0-1.78-.82,2.56,2.56,0,0,0-2.1.89,3.79,3.79,0,0,0-.75,2.52v1.54a3.16,3.16,0,0,0,.8,2.32,3,3,0,0,0,2.26.81,3.63,3.63,0,0,0,1.44-.29,4.18,4.18,0,0,0,1.28-.82l1.57,1.57a6.46,6.46,0,0,1-2,1.34,5.7,5.7,0,0,1-2.26.48A6,6,0,0,1,252.51,633.67Z"/><path d="M262.34,622h5.49v2.15h-5.49Zm1.94,11.41a3.66,3.66,0,0,1-.68-2.41V618.43H266V631a1.21,1.21,0,0,0,.17.69.61.61,0,0,0,.52.24h1.15v2.27h-1.39A2.68,2.68,0,0,1,264.28,633.38Z"/><line class="cls-3" x1="361" y1="684.5" x2="211" y2="684.5"/><path d="M217.16,673.69a4.3,4.3,0,0,1-1.8-1.81,6.13,6.13,0,0,1-.62-2.86v-2a6,6,0,0,1,.62-2.83,4.23,4.23,0,0,1,1.8-1.78,6.08,6.08,0,0,1,2.84-.62,6.85,6.85,0,0,1,1.79.23,5.28,5.28,0,0,1,1.51.66,4.15,4.15,0,0,1,1.11,1.06l-1.72,1.54a3.65,3.65,0,0,0-1.21-.9,3.43,3.43,0,0,0-1.44-.32,2.88,2.88,0,0,0-2.15.78,3,3,0,0,0-.76,2.18v2a3.08,3.08,0,0,0,.76,2.23A2.85,2.85,0,0,0,220,672a3.19,3.19,0,0,0,1.45-.34,3.45,3.45,0,0,0,1.2-1l1.72,1.67a4.29,4.29,0,0,1-1.13,1,4.84,4.84,0,0,1-1.5.65,6.83,6.83,0,0,1-1.78.23A6.08,6.08,0,0,1,217.16,673.69Z"/><path d="M229.44,671a1.07,1.07,0,0,0,.19.69.66.66,0,0,0,.54.24h1.13v2.27h-1.41a2.67,2.67,0,0,1-2.1-.84,3.48,3.48,0,0,1-.74-2.38V657.09h2.39Z"/><path d="M236,673.69a4.18,4.18,0,0,1-1.72-1.81,6.47,6.47,0,0,1-.59-2.87v-2a6.29,6.29,0,0,1,.59-2.83,4.08,4.08,0,0,1,1.72-1.79,6.23,6.23,0,0,1,5.42,0,4,4,0,0,1,1.71,1.79,6.16,6.16,0,0,1,.59,2.83v2a6.25,6.25,0,0,1-.59,2.85,4.13,4.13,0,0,1-1.71,1.8,6.23,6.23,0,0,1-5.42,0Zm4.65-2.44a3.25,3.25,0,0,0,.68-2.21v-2a3.16,3.16,0,0,0-.68-2.19,2.8,2.8,0,0,0-3.88,0A3.16,3.16,0,0,0,236,667v2a3.25,3.25,0,0,0,.69,2.21,2.8,2.8,0,0,0,3.88,0Z"/><path d="M249.14,673.69a4.3,4.3,0,0,1-1.8-1.81,6.13,6.13,0,0,1-.62-2.86v-2a6,6,0,0,1,.62-2.83,4.23,4.23,0,0,1,1.8-1.78,6.08,6.08,0,0,1,2.84-.62,6.85,6.85,0,0,1,1.79.23,5.28,5.28,0,0,1,1.51.66,4.15,4.15,0,0,1,1.11,1.06l-1.72,1.54a3.65,3.65,0,0,0-1.21-.9,3.43,3.43,0,0,0-1.44-.32,2.88,2.88,0,0,0-2.15.78,3,3,0,0,0-.76,2.18v2a3.08,3.08,0,0,0,.76,2.23A2.85,2.85,0,0,0,252,672a3.19,3.19,0,0,0,1.45-.34,3.45,3.45,0,0,0,1.2-1l1.72,1.67a4.29,4.29,0,0,1-1.13,1,4.84,4.84,0,0,1-1.5.65,6.83,6.83,0,0,1-1.78.23A6.08,6.08,0,0,1,249.14,673.69Z"/><path d="M259,657.09h2.39v17H259Zm1,12.42,6.25-7.54h2.82l-9.23,10.38Zm2.82-2.4,1.54-1.59,5.31,8.61h-2.61Z"/><line class="cls-2" x1="302.6" y1="543.9" x2="336.4" y2="510.1"/><path d="M314.57,497.88l5.72-12.34h2.46l-5.58,12.2h8.35V500H314.57Zm7.34-5.33h2.34v10h-2.34Z"/><line class="cls-3" x1="847" y1="700.48" x2="697" y2="700.48"/><path d="M776.13,673.57h2.39v17h-2.39Zm3.47,16.67a3.17,3.17,0,0,1-1.24-1.54l.16-2.55a3,3,0,0,0,.28,1.34,1.9,1.9,0,0,0,.82.84,2.56,2.56,0,0,0,1.29.3,2.37,2.37,0,0,0,1.84-.72,3,3,0,0,0,.65-2v-2.63a3.07,3.07,0,0,0-.65-2.08,2.34,2.34,0,0,0-1.84-.74,2.67,2.67,0,0,0-1.29.29,1.86,1.86,0,0,0-.82.82,2.91,2.91,0,0,0-.28,1.31l-.24-2.35a4.06,4.06,0,0,1,1.44-1.64,3.51,3.51,0,0,1,2-.58,4,4,0,0,1,2.21.58,3.63,3.63,0,0,1,1.4,1.69,6.76,6.76,0,0,1,.48,2.68v2.65a6.43,6.43,0,0,1-.5,2.65,3.51,3.51,0,0,1-1.44,1.68,4.23,4.23,0,0,1-2.27.58A3.58,3.58,0,0,1,779.6,690.24Z"/><path d="M791.28,685.84a2.79,2.79,0,0,0,.65,2,2.39,2.39,0,0,0,1.84.7,2.51,2.51,0,0,0,1.81-.62,2.36,2.36,0,0,0,.65-1.77l.16,2.54a3.44,3.44,0,0,1-3.29,2.12,3.86,3.86,0,0,1-3.11-1.29,5.5,5.5,0,0,1-1.1-3.65v-7.4h2.39Zm5-7.4h2.38v12.17h-2.38Z"/><path d="M810.63,680.46l-5.85,7.93H811v2.22h-9.06v-2.07l6-7.88h-5.84v-2.22h8.58Z"/><path d="M822.5,680.46l-5.85,7.93h6.17v2.22h-9.06v-2.07l6-7.88h-5.84v-2.22h8.58Z"/><path d="M828.08,690.15a4.2,4.2,0,0,1-1.82-1.86,6.38,6.38,0,0,1-.63-3V684a7.2,7.2,0,0,1,.6-3.08,4.32,4.32,0,0,1,1.76-1.94,5.32,5.32,0,0,1,2.76-.67,4.36,4.36,0,0,1,2.6.76,4.74,4.74,0,0,1,1.65,2.2,9.43,9.43,0,0,1,.57,3.46v.8h-8.2v-1.93h5.92a4.09,4.09,0,0,0-.76-2.31,2.17,2.17,0,0,0-1.78-.83,2.59,2.59,0,0,0-2.1.89,3.83,3.83,0,0,0-.75,2.52v1.55a3.17,3.17,0,0,0,.8,2.32,3,3,0,0,0,2.26.81,3.82,3.82,0,0,0,1.44-.29,4.18,4.18,0,0,0,1.28-.82l1.57,1.57a6.83,6.83,0,0,1-2,1.34,5.87,5.87,0,0,1-2.26.47A6.12,6.12,0,0,1,828.08,690.15Z"/><path d="M838.85,678.44h2.39v12.17h-2.39Zm5.89,2.3a2.93,2.93,0,0,0-1.11-.2,2.18,2.18,0,0,0-2.39,2.37l-.25-2.35a4.49,4.49,0,0,1,1.46-1.69,3.44,3.44,0,0,1,2-.6,4.45,4.45,0,0,1,1.5.24,3.3,3.3,0,0,1,1.18.71l-1.56,2.11A2,2,0,0,0,844.74,680.74Z"/><path d="M742.07,399.63a4.28,4.28,0,0,1-1.81-1.66,4.8,4.8,0,0,1-.64-2.49v-.28a4.85,4.85,0,0,1,.64-2.4,4.3,4.3,0,0,1,1.71-1.7,3.73,3.73,0,0,1-1.45-1.42,3.87,3.87,0,0,1-.54-2v-.41a4.63,4.63,0,0,1,.59-2.35,4.2,4.2,0,0,1,1.69-1.57,6.09,6.09,0,0,1,5.06,0A4.14,4.14,0,0,1,749,385a4.54,4.54,0,0,1,.6,2.35v.41a3.75,3.75,0,0,1-.56,2,3.69,3.69,0,0,1-1.47,1.41,4.37,4.37,0,0,1,1.73,1.71,4.69,4.69,0,0,1,.65,2.39v.28a4.71,4.71,0,0,1-.64,2.49,4.22,4.22,0,0,1-1.81,1.66,6.56,6.56,0,0,1-5.44,0Zm4.19-2a2.35,2.35,0,0,0,1-.92,2.64,2.64,0,0,0,.34-1.36v-.17a2.65,2.65,0,0,0-.34-1.37,2.35,2.35,0,0,0-1-.92,3.42,3.42,0,0,0-2.93,0,2.35,2.35,0,0,0-1,.92,2.73,2.73,0,0,0-.35,1.39v.17a2.62,2.62,0,0,0,.35,1.36,2.4,2.4,0,0,0,1,.91,3.23,3.23,0,0,0,1.46.32A3.12,3.12,0,0,0,746.26,397.59Zm-.2-7.68a2.12,2.12,0,0,0,.85-.88,2.75,2.75,0,0,0,.31-1.33v-.16a2.52,2.52,0,0,0-.31-1.27,2.11,2.11,0,0,0-.85-.85,2.62,2.62,0,0,0-1.27-.3,2.58,2.58,0,0,0-1.26.3,2.2,2.2,0,0,0-.86.85,2.66,2.66,0,0,0-.3,1.28v.18a2.74,2.74,0,0,0,.3,1.3,2.21,2.21,0,0,0,.86.88,2.48,2.48,0,0,0,1.26.31A2.52,2.52,0,0,0,746.06,389.91Z"/><line class="cls-2" x1="699" y1="416.48" x2="869" y2="416.48"/><line class="cls-2" x1="761.4" y1="433.38" x2="727.6" y2="399.58"/><path d="M780.45,397.26h2.39v12.53h-2.39Zm7.27,4.94a3,3,0,0,0-.64-2.05,2.22,2.22,0,0,0-1.79-.73,2.44,2.44,0,0,0-1.81.64,2.47,2.47,0,0,0-.64,1.8l-.24-2.42a4.4,4.4,0,0,1,1.47-1.75,3.48,3.48,0,0,1,2-.61,3.85,3.85,0,0,1,2.18.6,3.66,3.66,0,0,1,1.37,1.74,7.17,7.17,0,0,1,.48,2.76v7.61h-2.39Zm7.26,0a2.92,2.92,0,0,0-.66-2.05,2.41,2.41,0,0,0-1.88-.73,2.14,2.14,0,0,0-1.72.7,2.91,2.91,0,0,0-.61,2l-.48-2.41a4.8,4.8,0,0,1,1.52-1.93,3.48,3.48,0,0,1,2.08-.68,4.05,4.05,0,0,1,2.24.6,3.75,3.75,0,0,1,1.42,1.74,7.17,7.17,0,0,1,.48,2.76v7.61H795Z"/><path d="M801.53,409a3.64,3.64,0,0,1-1.11-2.91,3.59,3.59,0,0,1,1-2.79,4.45,4.45,0,0,1,3.08-.93H808l.16,2h-3.61a2,2,0,0,0-1.4.43,1.72,1.72,0,0,0-.46,1.31,1.66,1.66,0,0,0,.62,1.41,3.16,3.16,0,0,0,1.87.46,5.28,5.28,0,0,0,2-.3,1,1,0,0,0,.67-.95l.25,1.77a3,3,0,0,1-.78.83,3.38,3.38,0,0,1-1.07.49,5.26,5.26,0,0,1-1.37.16A5.08,5.08,0,0,1,801.53,409Zm6.34-7.16a2.74,2.74,0,0,0-.63-1.92,2.39,2.39,0,0,0-1.82-.68,4.64,4.64,0,0,0-1.42.23,4.28,4.28,0,0,0-1.24.64L801,398.89a4.51,4.51,0,0,1,1.82-1.33,6.35,6.35,0,0,1,2.51-.48,5.57,5.57,0,0,1,2.59.55,3.71,3.71,0,0,1,1.64,1.59,5.21,5.21,0,0,1,.57,2.52v8.05h-2.28Z"/><path d="M812.84,397.26h5.49v2.22h-5.49ZM814.78,409a3.9,3.9,0,0,1-.68-2.48V393.61h2.39v12.94a1.26,1.26,0,0,0,.17.71.59.59,0,0,0,.52.25h1.15v2.34h-1.39A2.63,2.63,0,0,1,814.78,409Z"/><path d="M821.61,397.26H824v12.53h-2.39Zm5.89,2.37a2.75,2.75,0,0,0-1.11-.21,2.32,2.32,0,0,0-1.76.65,2.44,2.44,0,0,0-.63,1.79l-.25-2.42a4.58,4.58,0,0,1,1.46-1.74,3.38,3.38,0,0,1,2-.62,4.23,4.23,0,0,1,1.51.25,3.21,3.21,0,0,1,1.18.73l-1.56,2.17A1.91,1.91,0,0,0,827.5,399.63Z"/><path d="M831.85,392.24h2.39v2.46h-2.39Zm0,5h2.39v12.53h-2.39Z"/><path d="M846.26,399.34l-5.84,8.17h6.16v2.28h-9.06v-2.12l6-8.13h-5.83v-2.28h8.57Z"/><path d="M858,409.79v2.34h-9.75v-2.34Z"/><path d="M860.2,397.26h2.39v12.53H860.2Zm5.89,2.37a2.75,2.75,0,0,0-1.11-.21,2.32,2.32,0,0,0-1.76.65,2.44,2.44,0,0,0-.63,1.79l-.25-2.42a4.58,4.58,0,0,1,1.46-1.74,3.38,3.38,0,0,1,2-.62,4.23,4.23,0,0,1,1.51.25,3.21,3.21,0,0,1,1.18.73l-1.56,2.17A1.91,1.91,0,0,0,866.09,399.63Z"/><path d="M742.07,459.63a4.28,4.28,0,0,1-1.81-1.66,4.8,4.8,0,0,1-.64-2.49v-.28a4.85,4.85,0,0,1,.64-2.4,4.3,4.3,0,0,1,1.71-1.7,3.73,3.73,0,0,1-1.45-1.42,3.87,3.87,0,0,1-.54-2v-.41a4.63,4.63,0,0,1,.59-2.35,4.2,4.2,0,0,1,1.69-1.57,6.09,6.09,0,0,1,5.06,0A4.14,4.14,0,0,1,749,445a4.54,4.54,0,0,1,.6,2.35v.41a3.75,3.75,0,0,1-.56,2,3.69,3.69,0,0,1-1.47,1.41,4.37,4.37,0,0,1,1.73,1.71,4.69,4.69,0,0,1,.65,2.39v.28a4.71,4.71,0,0,1-.64,2.49,4.22,4.22,0,0,1-1.81,1.66,6.56,6.56,0,0,1-5.44,0Zm4.19-2a2.35,2.35,0,0,0,1-.92,2.64,2.64,0,0,0,.34-1.36v-.17a2.65,2.65,0,0,0-.34-1.37,2.35,2.35,0,0,0-1-.92,3.42,3.42,0,0,0-2.93,0,2.35,2.35,0,0,0-1,.92,2.73,2.73,0,0,0-.35,1.39v.17a2.62,2.62,0,0,0,.35,1.36,2.4,2.4,0,0,0,1,.91,3.23,3.23,0,0,0,1.46.32A3.12,3.12,0,0,0,746.26,457.59Zm-.2-7.68a2.12,2.12,0,0,0,.85-.88,2.75,2.75,0,0,0,.31-1.33v-.16a2.52,2.52,0,0,0-.31-1.27,2.11,2.11,0,0,0-.85-.85,2.62,2.62,0,0,0-1.27-.3,2.58,2.58,0,0,0-1.26.3,2.2,2.2,0,0,0-.86.85,2.66,2.66,0,0,0-.3,1.28v.18a2.74,2.74,0,0,0,.3,1.3,2.21,2.21,0,0,0,.86.88,2.48,2.48,0,0,0,1.26.31A2.52,2.52,0,0,0,746.06,449.91Z"/><line class="cls-2" x1="699" y1="476.48" x2="869" y2="476.48"/><line class="cls-2" x1="761.4" y1="493.38" x2="727.6" y2="459.58"/><path d="M777.76,457.26h2.39v12.53h-2.39ZM785,462.2a3,3,0,0,0-.63-2.05,2.23,2.23,0,0,0-1.79-.73,2.23,2.23,0,0,0-2.45,2.44l-.25-2.42a4.56,4.56,0,0,1,1.47-1.75,3.52,3.52,0,0,1,2-.61,3.85,3.85,0,0,1,2.18.6,3.74,3.74,0,0,1,1.38,1.74,7.38,7.38,0,0,1,.47,2.76v7.61H785Zm7.27,0a2.88,2.88,0,0,0-.67-2.05,2.4,2.4,0,0,0-1.87-.73,2.16,2.16,0,0,0-1.73.7,3,3,0,0,0-.61,2l-.48-2.41a4.89,4.89,0,0,1,1.52-1.93,3.5,3.5,0,0,1,2.08-.68,4,4,0,0,1,2.24.6,3.63,3.63,0,0,1,1.42,1.74,7,7,0,0,1,.49,2.76v7.61h-2.39Z"/><path d="M798.84,469a3.64,3.64,0,0,1-1.11-2.91,3.59,3.59,0,0,1,1-2.79,4.41,4.41,0,0,1,3.08-.93h3.45l.17,2h-3.61a2,2,0,0,0-1.4.43,1.68,1.68,0,0,0-.46,1.31,1.65,1.65,0,0,0,.61,1.41,3.16,3.16,0,0,0,1.87.46,5.24,5.24,0,0,0,2-.3,1,1,0,0,0,.68-.95l.24,1.77a3.06,3.06,0,0,1-.77.83,3.34,3.34,0,0,1-1.08.49,5.21,5.21,0,0,1-1.37.16A5,5,0,0,1,798.84,469Zm6.34-7.16a2.7,2.7,0,0,0-.64-1.92,2.38,2.38,0,0,0-1.81-.68,4.59,4.59,0,0,0-1.42.23,4.16,4.16,0,0,0-1.24.64l-1.75-1.23a4.48,4.48,0,0,1,1.83-1.33,6.35,6.35,0,0,1,2.51-.48,5.6,5.6,0,0,1,2.59.55,3.76,3.76,0,0,1,1.64,1.59,5.33,5.33,0,0,1,.56,2.52v8.05h-2.27Z"/><path d="M810.15,457.26h5.48v2.22h-5.48ZM812.09,469a3.84,3.84,0,0,1-.69-2.48V453.61h2.39v12.94a1.18,1.18,0,0,0,.18.71.57.57,0,0,0,.51.25h1.15v2.34h-1.38A2.61,2.61,0,0,1,812.09,469Z"/><path d="M818.91,457.26h2.39v12.53h-2.39Zm5.9,2.37a2.76,2.76,0,0,0-1.12-.21,2.36,2.36,0,0,0-1.76.65,2.44,2.44,0,0,0-.63,1.79l-.24-2.42a4.56,4.56,0,0,1,1.45-1.74,3.39,3.39,0,0,1,2-.62,4.27,4.27,0,0,1,1.51.25,3.17,3.17,0,0,1,1.17.73l-1.56,2.17A1.88,1.88,0,0,0,824.81,459.63Z"/><path d="M829.16,452.24h2.39v2.46h-2.39Zm0,5h2.39v12.53h-2.39Z"/><path d="M843.57,459.34l-5.85,8.17h6.17v2.28h-9.06v-2.12l6-8.13H835v-2.28h8.58Z"/><path d="M855.28,469.79v2.34h-9.75v-2.34Z"/><path d="M859.08,469.41a3.77,3.77,0,0,1-1.44-1.74,7.17,7.17,0,0,1-.49-2.76v-2.76a7.19,7.19,0,0,1,.48-2.77,3.76,3.76,0,0,1,1.4-1.74,4,4,0,0,1,2.21-.6,3.64,3.64,0,0,1,2,.58,4.24,4.24,0,0,1,1.44,1.63l-.24,2.56a3.11,3.11,0,0,0-.28-1.36,2,2,0,0,0-.82-.87,2.7,2.7,0,0,0-1.29-.29,2.29,2.29,0,0,0-1.84.76,3.21,3.21,0,0,0-.65,2.13v2.73a3.13,3.13,0,0,0,.65,2.11,2.34,2.34,0,0,0,1.84.74,2.49,2.49,0,0,0,1.29-.31,2,2,0,0,0,.82-.88,3.28,3.28,0,0,0,.28-1.39l.16,2.64a3.56,3.56,0,0,1-1.19,1.56,3.25,3.25,0,0,1-2,.63A4.17,4.17,0,0,1,859.08,469.41Zm0,4.95a3.94,3.94,0,0,1-1.69-1.48l1.62-1.51a3.42,3.42,0,0,0,1.12,1,2.78,2.78,0,0,0,1.37.36,2.81,2.81,0,0,0,2.12-.78,3,3,0,0,0,.75-2.2V457.26h2.39v12.16a6.52,6.52,0,0,1-.62,2.95,4.19,4.19,0,0,1-1.78,1.87,5.83,5.83,0,0,1-2.83.64A5.54,5.54,0,0,1,859.13,474.36Z"/><path d="M742.07,519.63a4.28,4.28,0,0,1-1.81-1.66,4.8,4.8,0,0,1-.64-2.49v-.28a4.85,4.85,0,0,1,.64-2.4,4.3,4.3,0,0,1,1.71-1.7,3.73,3.73,0,0,1-1.45-1.42,3.87,3.87,0,0,1-.54-2v-.41a4.63,4.63,0,0,1,.59-2.35,4.2,4.2,0,0,1,1.69-1.57,6.09,6.09,0,0,1,5.06,0A4.14,4.14,0,0,1,749,505a4.54,4.54,0,0,1,.6,2.35v.41a3.75,3.75,0,0,1-.56,2,3.69,3.69,0,0,1-1.47,1.41,4.37,4.37,0,0,1,1.73,1.71,4.69,4.69,0,0,1,.65,2.39v.28a4.71,4.71,0,0,1-.64,2.49,4.22,4.22,0,0,1-1.81,1.66,6.56,6.56,0,0,1-5.44,0Zm4.19-2a2.35,2.35,0,0,0,1-.92,2.64,2.64,0,0,0,.34-1.36v-.17a2.65,2.65,0,0,0-.34-1.37,2.35,2.35,0,0,0-1-.92,3.42,3.42,0,0,0-2.93,0,2.35,2.35,0,0,0-1,.92,2.73,2.73,0,0,0-.35,1.39v.17a2.62,2.62,0,0,0,.35,1.36,2.4,2.4,0,0,0,1,.91,3.23,3.23,0,0,0,1.46.32A3.12,3.12,0,0,0,746.26,517.59Zm-.2-7.68a2.12,2.12,0,0,0,.85-.88,2.75,2.75,0,0,0,.31-1.33v-.16a2.52,2.52,0,0,0-.31-1.27,2.11,2.11,0,0,0-.85-.85,2.62,2.62,0,0,0-1.27-.3,2.58,2.58,0,0,0-1.26.3,2.2,2.2,0,0,0-.86.85,2.66,2.66,0,0,0-.3,1.28v.18a2.74,2.74,0,0,0,.3,1.3,2.21,2.21,0,0,0,.86.88,2.48,2.48,0,0,0,1.26.31A2.52,2.52,0,0,0,746.06,509.91Z"/><line class="cls-2" x1="699" y1="536.48" x2="869" y2="536.48"/><line class="cls-2" x1="761.4" y1="553.38" x2="727.6" y2="519.58"/><path d="M777.64,517.26H780v12.53h-2.39Zm7.27,4.94a3,3,0,0,0-.64-2.05,2.23,2.23,0,0,0-1.79-.73,2.23,2.23,0,0,0-2.45,2.44l-.25-2.42a4.56,4.56,0,0,1,1.47-1.75,3.52,3.52,0,0,1,2-.61,3.83,3.83,0,0,1,2.18.6,3.68,3.68,0,0,1,1.38,1.74,7.17,7.17,0,0,1,.48,2.76v7.61h-2.39Zm7.26,0a2.88,2.88,0,0,0-.67-2.05,2.39,2.39,0,0,0-1.87-.73,2.14,2.14,0,0,0-1.72.7,2.91,2.91,0,0,0-.61,2l-.48-2.41a4.78,4.78,0,0,1,1.51-1.93,3.52,3.52,0,0,1,2.08-.68,4.06,4.06,0,0,1,2.25.6,3.75,3.75,0,0,1,1.42,1.74,7.17,7.17,0,0,1,.48,2.76v7.61h-2.39Z"/><path d="M798.72,529a3.64,3.64,0,0,1-1.11-2.91,3.59,3.59,0,0,1,1-2.79,4.43,4.43,0,0,1,3.08-.93h3.46l.16,2h-3.61a2,2,0,0,0-1.4.43,1.68,1.68,0,0,0-.46,1.31,1.65,1.65,0,0,0,.61,1.41,3.18,3.18,0,0,0,1.87.46,5.3,5.3,0,0,0,2-.3,1,1,0,0,0,.67-.95l.25,1.77a3,3,0,0,1-.78.83,3.38,3.38,0,0,1-1.07.49,5.34,5.34,0,0,1-1.38.16A5,5,0,0,1,798.72,529Zm6.34-7.16a2.7,2.7,0,0,0-.64-1.92,2.37,2.37,0,0,0-1.81-.68,4.59,4.59,0,0,0-1.42.23,4.16,4.16,0,0,0-1.24.64l-1.74-1.23a4.45,4.45,0,0,1,1.82-1.33,6.35,6.35,0,0,1,2.51-.48,5.6,5.6,0,0,1,2.59.55,3.71,3.71,0,0,1,1.64,1.59,5.21,5.21,0,0,1,.56,2.52v8h-2.27Z"/><path d="M810,517.26h5.48v2.22H810ZM812,529a3.84,3.84,0,0,1-.69-2.48V513.61h2.39v12.94a1.18,1.18,0,0,0,.18.71.59.59,0,0,0,.52.25h1.14v2.34h-1.38A2.63,2.63,0,0,1,812,529Z"/><path d="M818.8,517.26h2.39v12.53H818.8Zm5.89,2.37a2.75,2.75,0,0,0-1.11-.21,2.36,2.36,0,0,0-1.77.65,2.48,2.48,0,0,0-.62,1.79l-.25-2.42a4.65,4.65,0,0,1,1.45-1.74,3.41,3.41,0,0,1,2-.62,4.23,4.23,0,0,1,1.51.25,3.21,3.21,0,0,1,1.18.73l-1.56,2.17A1.91,1.91,0,0,0,824.69,519.63Z"/><path d="M829,512.24h2.39v2.46H829Zm0,5h2.39v12.53H829Z"/><path d="M843.45,519.34l-5.85,8.17h6.17v2.28h-9.06v-2.12l6-8.13h-5.84v-2.28h8.58Z"/><path d="M855.16,529.79v2.34h-9.75v-2.34Z"/><path d="M857.39,512.24h2.39v17.55h-2.39Zm3.46,17.17a3.26,3.26,0,0,1-1.24-1.59l.17-2.62a3.06,3.06,0,0,0,.28,1.38,2,2,0,0,0,.81.87,2.63,2.63,0,0,0,1.3.3A2.31,2.31,0,0,0,864,527a3.12,3.12,0,0,0,.65-2.1V522.2a3.22,3.22,0,0,0-.65-2.14,2.26,2.26,0,0,0-1.83-.76,2.74,2.74,0,0,0-1.3.29,2,2,0,0,0-.81.85,2.93,2.93,0,0,0-.28,1.35l-.25-2.42a4.3,4.3,0,0,1,1.44-1.69,3.49,3.49,0,0,1,2-.6,4,4,0,0,1,2.21.6,3.71,3.71,0,0,1,1.4,1.74,7.17,7.17,0,0,1,.48,2.76v2.73a6.8,6.8,0,0,1-.49,2.73,3.75,3.75,0,0,1-1.44,1.73,4.17,4.17,0,0,1-2.28.6A3.56,3.56,0,0,1,860.85,529.41Z"/><path d="M742.07,579.63a4.28,4.28,0,0,1-1.81-1.66,4.8,4.8,0,0,1-.64-2.49v-.28a4.85,4.85,0,0,1,.64-2.4,4.3,4.3,0,0,1,1.71-1.7,3.73,3.73,0,0,1-1.45-1.42,3.87,3.87,0,0,1-.54-2v-.41a4.57,4.57,0,0,1,.59-2.34,4.16,4.16,0,0,1,1.69-1.58,6.09,6.09,0,0,1,5.06,0A4.1,4.1,0,0,1,749,565a4.48,4.48,0,0,1,.6,2.34v.41a3.81,3.81,0,0,1-.56,2,3.73,3.73,0,0,1-1.47,1.4,4.37,4.37,0,0,1,1.73,1.71,4.69,4.69,0,0,1,.65,2.39v.28a4.71,4.71,0,0,1-.64,2.49,4.22,4.22,0,0,1-1.81,1.66,6.56,6.56,0,0,1-5.44,0Zm4.19-2a2.29,2.29,0,0,0,1-.92,2.64,2.64,0,0,0,.34-1.36v-.17a2.65,2.65,0,0,0-.34-1.37,2.35,2.35,0,0,0-1-.92,3.42,3.42,0,0,0-2.93,0,2.42,2.42,0,0,0-1,.92,2.73,2.73,0,0,0-.35,1.39v.17a2.62,2.62,0,0,0,.35,1.36,2.4,2.4,0,0,0,1,.91,3.23,3.23,0,0,0,1.46.32A3.12,3.12,0,0,0,746.26,577.59Zm-.2-7.68a2.06,2.06,0,0,0,.85-.88,2.75,2.75,0,0,0,.31-1.33v-.16a2.52,2.52,0,0,0-.31-1.27,2.11,2.11,0,0,0-.85-.85,2.62,2.62,0,0,0-1.27-.3,2.58,2.58,0,0,0-1.26.3,2.2,2.2,0,0,0-.86.85,2.66,2.66,0,0,0-.3,1.28v.18a2.74,2.74,0,0,0,.3,1.3,2.15,2.15,0,0,0,.86.88,2.48,2.48,0,0,0,1.26.31A2.52,2.52,0,0,0,746.06,569.91Z"/><line class="cls-2" x1="699" y1="596.48" x2="869" y2="596.48"/><line class="cls-2" x1="761.4" y1="613.38" x2="727.6" y2="579.58"/><path d="M758.71,577.26h2.39v12.53h-2.39ZM766,582.2a3.06,3.06,0,0,0-.63-2.06,2.28,2.28,0,0,0-1.8-.72,2.44,2.44,0,0,0-1.81.64,2.47,2.47,0,0,0-.64,1.8l-.24-2.41a4.43,4.43,0,0,1,1.47-1.76,3.48,3.48,0,0,1,2-.61,3.85,3.85,0,0,1,2.18.6,3.74,3.74,0,0,1,1.38,1.74,7.38,7.38,0,0,1,.47,2.76v7.61H766Zm7.27,0a3,3,0,0,0-.67-2.06,2.44,2.44,0,0,0-1.88-.72,2.15,2.15,0,0,0-1.72.7,2.91,2.91,0,0,0-.61,2l-.48-2.41a4.73,4.73,0,0,1,1.52-1.93,3.5,3.5,0,0,1,2.08-.68,4.05,4.05,0,0,1,2.24.6,3.69,3.69,0,0,1,1.42,1.74,7.17,7.17,0,0,1,.49,2.76v7.61h-2.39Z"/><path d="M779.8,589a4.33,4.33,0,0,1-.1-5.7,4.45,4.45,0,0,1,3.08-.93h3.46l.17,2H782.8a2,2,0,0,0-1.4.43,1.69,1.69,0,0,0-.47,1.31,1.66,1.66,0,0,0,.62,1.41,3.16,3.16,0,0,0,1.87.46,5.28,5.28,0,0,0,2-.3,1,1,0,0,0,.68-.95l.24,1.77a3,3,0,0,1-.78.83,3.28,3.28,0,0,1-1.07.49,5.26,5.26,0,0,1-1.37.16A5,5,0,0,1,779.8,589Zm6.34-7.16a2.75,2.75,0,0,0-.64-1.92,2.38,2.38,0,0,0-1.81-.68,4.65,4.65,0,0,0-1.43.23,4.23,4.23,0,0,0-1.23.64l-1.75-1.23a4.51,4.51,0,0,1,1.82-1.33,6.4,6.4,0,0,1,2.52-.48,5.62,5.62,0,0,1,2.59.55,3.81,3.81,0,0,1,1.64,1.59,5.33,5.33,0,0,1,.56,2.52v8h-2.27Z"/><path d="M791.1,577.26h5.49v2.22H791.1ZM793,589a3.9,3.9,0,0,1-.68-2.48V573.61h2.39v12.94a1.26,1.26,0,0,0,.17.71.59.59,0,0,0,.52.25h1.15v2.34h-1.38A2.64,2.64,0,0,1,793,589Z"/><path d="M799.87,577.26h2.39v12.53h-2.39Zm5.89,2.37a2.75,2.75,0,0,0-1.11-.21,2.34,2.34,0,0,0-1.76.65,2.44,2.44,0,0,0-.63,1.79l-.25-2.41a4.62,4.62,0,0,1,1.46-1.75,3.39,3.39,0,0,1,2-.62,4.22,4.22,0,0,1,1.5.25,3.21,3.21,0,0,1,1.18.73l-1.56,2.17A1.91,1.91,0,0,0,805.76,579.63Z"/><path d="M810.11,572.24h2.39v2.46h-2.39Zm0,5h2.39v12.53h-2.39Z"/><path d="M824.53,579.34l-5.85,8.17h6.16v2.28h-9.06v-2.12l6-8.13H816v-2.28h8.58Z"/><path d="M836.23,589.79v2.34h-9.75v-2.34Z"/><path d="M840.53,589.33a4.2,4.2,0,0,1-1.8-1.86,6.45,6.45,0,0,1-.62-2.94v-2.07a6.38,6.38,0,0,1,.62-2.91,4.21,4.21,0,0,1,1.8-1.84,5.93,5.93,0,0,1,2.84-.63,6.91,6.91,0,0,1,1.79.23,5.15,5.15,0,0,1,1.5.69,4.12,4.12,0,0,1,1.12,1.08l-1.73,1.6a3.36,3.36,0,0,0-1.2-.93,3.3,3.3,0,0,0-1.44-.33,2.84,2.84,0,0,0-2.15.8,3.1,3.1,0,0,0-.76,2.24v2.07a3.24,3.24,0,0,0,.75,2.29,2.83,2.83,0,0,0,2.16.81,3.23,3.23,0,0,0,1.45-.35,3.53,3.53,0,0,0,1.19-1l1.73,1.71a4.27,4.27,0,0,1-1.13,1.07,5,5,0,0,1-1.5.67,6.83,6.83,0,0,1-1.78.23A5.81,5.81,0,0,1,840.53,589.33Z"/><path d="M852.37,589.33a4.25,4.25,0,0,1-1.72-1.86,6.82,6.82,0,0,1-.59-3v-2a6.65,6.65,0,0,1,.59-2.91,4.17,4.17,0,0,1,1.72-1.85,6.12,6.12,0,0,1,5.41,0,4.12,4.12,0,0,1,1.72,1.85,6.51,6.51,0,0,1,.59,2.91v2.08a6.57,6.57,0,0,1-.59,2.93,4.17,4.17,0,0,1-1.72,1.85,6,6,0,0,1-5.41,0Zm4.65-2.51a3.45,3.45,0,0,0,.68-2.27v-2.08a3.38,3.38,0,0,0-.68-2.25,2.44,2.44,0,0,0-1.94-.8,2.41,2.41,0,0,0-1.94.8,3.33,3.33,0,0,0-.69,2.25v2.08a3.4,3.4,0,0,0,.69,2.27,2.39,2.39,0,0,0,1.94.81A2.41,2.41,0,0,0,857,586.82Z"/><path d="M865.88,586.55a1.11,1.11,0,0,0,.2.71.63.63,0,0,0,.54.25h1.13v2.34h-1.41a2.6,2.6,0,0,1-2.1-.87,3.64,3.64,0,0,1-.75-2.45V572.24h2.39Z"/></svg>